
<svg
   xmlns:dc="http://purl.org/dc/elements/1.1/"
   xmlns:cc="http://creativecommons.org/ns#"
   xmlns:rdf="http://www.w3.org/1999/02/22-rdf-syntax-ns#"
   xmlns:svg="http://www.w3.org/2000/svg"
   xmlns="http://www.w3.org/2000/svg"
   viewBox="0 0 1440 1440"
   height="1440"
   width="1440"
   xml:space="preserve"
   id="svg2"
   version="1.1"><metadata
     id="metadata8"><rdf:RDF><cc:Work
         rdf:about=""><dc:format>image/svg+xml</dc:format><dc:type
           rdf:resource="http://purl.org/dc/dcmitype/StillImage" /></cc:Work></rdf:RDF></metadata><defs
     id="defs6"><clipPath
       id="clipPath18"
       clipPathUnits="userSpaceOnUse"><path
         id="path16"
         d="M 0,1080 H 1080 V 0 H 0 Z" /></clipPath></defs><g
     transform="matrix(1.3333333,0,0,-1.3333333,0,1440)"
     id="g10"><g
       id="g12"><g
         clip-path="url(#clipPath18)"
         id="g14"><g
           transform="translate(922.3702,764.6486)"
           id="g20"><path
             id="path22"
             style="fill:#4a5b30;fill-opacity:1;fill-rule:nonzero;stroke:none"
             d="m 0,0 c -2.538,-22.689 -4.801,-44.269 -7.388,-65.811 -8.778,-73.089 -18.336,-187.784 -26.295,-260.961 -5.732,-52.696 -50.624,-95.43 -103.737,-95.489 -163.462,-0.182 -326.925,-0.23 -490.387,-0.018 -53.289,0.069 -97.659,42.757 -103.503,95.664 -9.583,86.744 -20.707,215.009 -31.146,301.659 -0.965,8.018 -1.679,16.065 -2.599,24.956 z" /></g><g
           transform="translate(499.2418,874.5647)"
           id="g24"><path
             id="path26"
             style="fill:#4a5b30;fill-opacity:1;fill-rule:nonzero;stroke:none"
             d="m 0,0 c 0.815,-11.094 -0.025,-21.892 2.649,-31.734 7.051,-25.96 24.504,-42.677 51.109,-47.104 26.959,-4.486 49.55,4.821 64.88,28.032 9.253,14.01 16.553,29.316 25.915,43.244 2.882,4.286 9.664,8.407 14.682,8.435 91.927,0.5 183.857,0.573 275.785,0.254 32.321,-0.111 57.571,-22.19 60.654,-51.506 3.273,-31.125 -16.079,-58.849 -45.602,-65.078 -3.95,-0.834 -8.088,-1.091 -12.139,-1.092 -263.952,-0.038 -527.904,-0.02 -791.856,-0.015 -33.886,0 -59.496,23.33 -60.553,55.213 -1.149,34.665 22.04,61.963 56.469,62.175 118.315,0.731 236.638,0.217 354.958,0.14 C -2.198,0.963 -1.348,0.441 0,0" /></g><g
           transform="translate(542.1764,821.6279)"
           id="g28"><path
             id="path30"
             style="fill:#4a5b30;fill-opacity:1;fill-rule:nonzero;stroke:none"
             d="m 0,0 v 0 c -21.071,12.239 -28.231,39.242 -15.992,60.313 l 82.035,140.432 c 12.239,21.071 39.242,28.231 60.313,15.992 v 0 c 21.071,-12.239 28.231,-39.242 15.992,-60.313 L 60.313,15.992 C 48.074,-5.079 21.071,-12.239 0,0" /></g><g
           transform="translate(473.7234,388.7951)"
           id="g32"><path
             id="path34"
             style="fill:#c0d850;fill-opacity:1;fill-rule:nonzero;stroke:none"
             d="m 0,0 h -43.254 c -12.892,0 -23.344,10.451 -23.344,23.344 v 269.85 c 0,12.893 10.452,23.344 23.344,23.344 H 0 c 12.892,0 23.344,-10.451 23.344,-23.344 V 23.344 C 23.344,10.451 12.892,0 0,0" /></g><g
           transform="translate(680.7751,386.9214)"
           id="g36"><path
             id="path38"
             style="fill:#c0d850;fill-opacity:1;fill-rule:nonzero;stroke:none"
             d="m 0,0 h -43.254 c -12.892,0 -23.344,10.451 -23.344,23.344 v 355.892 c 0,12.892 10.452,23.344 23.344,23.344 H 0 c 12.892,0 23.344,-10.452 23.344,-23.344 V 23.344 C 23.344,10.451 12.892,0 0,0" /></g><g
           transform="translate(309.3777,615.9036)"
           id="g40"><path
             id="path42"
             style="fill:#9cb948;fill-opacity:1;fill-rule:nonzero;stroke:none"
             d="m 0,0 c 5.916,4.733 14.383,4.472 20.011,-0.599 28.691,-25.853 118.723,-98.641 223.37,-99.082 103.398,-0.436 195.364,80.479 226.216,110.838 6.327,6.226 16.392,6.487 23.011,0.573 l 0.008,-0.007 c 7.295,-6.519 7.511,-17.863 0.458,-24.644 C 458.507,-46.154 357.91,-132.478 244.455,-133.778 131.459,-135.073 33.301,-54.894 -0.842,-23.409 -7.79,-17.002 -7.38,-5.904 0,0" /></g><g
           transform="translate(338.807,639.8983)"
           id="g44"><path
             id="path46"
             style="fill:#9cb948;fill-opacity:1;fill-rule:nonzero;stroke:none"
             d="m 0,0 v 0 c -1.267,-2.111 -3.79,-3.113 -6.155,-2.432 -8.676,2.498 -29.703,6.37 -41.793,-9.96 -12.861,-17.37 -5.356,-33.078 1.025,-42.182 1.871,-2.67 1.14,-6.361 -1.582,-8.156 v 0 c -2.564,-1.691 -5.996,-1.098 -7.845,1.355 -6.47,8.577 -18.201,29.631 -1.465,54.621 14.834,22.15 43.195,19.02 55.026,14.66 C 0.415,6.725 1.757,2.928 0,0" /></g><g
           transform="translate(385.0996,210.3506)"
           id="g48"></g></g></g></g></svg>