<?xml version="1.0" encoding="utf-8"?>
<!-- Generator: Adobe Illustrator 24.0.1, SVG Export Plug-In . SVG Version: 6.00 Build 0)  -->
<svg version="1.1" xmlns="http://www.w3.org/2000/svg" xmlns:xlink="http://www.w3.org/1999/xlink" x="0px" y="0px"
	 viewBox="0 0 500 500" style="enable-background:new 0 0 500 500;" xml:space="preserve">
<style type="text/css">
	.st0{fill:#FFFFFF;}
	.st1{fill:#B5DFEA;}
	.st2{opacity:0.55;fill:#90CEDD;}
	.st3{fill:#79C9E8;}
	.st4{fill:#D7F0F9;}
	.st5{fill:#0582C1;}
	.st6{fill:#FFBF4D;}
	.st7{fill:#00668E;}
	.st8{fill:#05556D;}
	.st9{fill:#F98D3D;}
	.st10{fill:#ED701B;}
	.st11{fill:none;}
	.st12{fill:#EFAA3A;}
	.st13{opacity:0.29;fill:#F98D2B;}
	.st14{fill:#49B4D6;}
	.st15{fill:#FF9F50;}
	.st16{fill:#F77E2D;}
	.st17{opacity:0.55;fill:url(#SVGID_1_);}
	.st18{fill:#0A6666;stroke:#0B6666;stroke-width:5;stroke-miterlimit:10;}
	.st19{fill:#009688;}
	.st20{opacity:0.13;fill:#009688;}
	.st21{opacity:0.2;fill:#A8E9FC;}
	.st22{fill:#A8E9FC;}
	.st23{opacity:0.2;}
	.st24{opacity:0.5;fill:#FFFFFF;}
	.st25{fill:#2CD0D1;}
	.st26{fill:#76D7FA;}
	.st27{fill:#00435F;}
	.st28{fill:#FFF7EF;}
	.st29{fill:#00698F;}
	.st30{fill:#C9DEE6;}
	.st31{fill:#FCB13A;}
	.st32{fill:#24AAAB;}
	.st33{fill:#F2F7F9;}
	.st34{fill:none;stroke:#00798B;stroke-width:2.7321;stroke-linejoin:round;stroke-miterlimit:10;}
	.st35{clip-path:url(#SVGID_3_);fill:#FCB13A;}
	.st36{fill:url(#XMLID_5_);}
	.st37{fill:url(#XMLID_6_);}
	.st38{fill:#FFBE00;}
	.st39{fill:#003AA5;}
	.st40{fill:#002C72;}
	.st41{fill:#259AFF;}
	.st42{clip-path:url(#XMLID_7_);}
	.st43{clip-path:url(#XMLID_8_);}
	.st44{clip-path:url(#XMLID_9_);}
	.st45{opacity:0.3;fill:#259AFF;}
	.st46{opacity:0.3;}
	.st47{fill:none;stroke:#259AFF;stroke-width:2;stroke-miterlimit:10;}
	.st48{opacity:0.2;clip-path:url(#XMLID_10_);}
	.st49{fill:#0A6666;}
	.st50{fill:#F4F4F4;}
	.st51{opacity:0.5;}
	.st52{opacity:0.5;fill:#FFFFFF;enable-background:new    ;}
	.st53{fill:#E3E3E3;}
	.st54{fill:#78FFF2;}
	.st55{fill:#EAEAEA;}
	.st56{fill:#03B9EA;}
	.st57{fill:#4A4A4A;}
	.st58{opacity:0.3;fill:none;stroke:#FF9800;stroke-width:4;stroke-miterlimit:10;stroke-dasharray:12;enable-background:new    ;}
	.st59{fill:url(#SVGID_4_);}
	.st60{fill:url(#SVGID_5_);}
	.st61{fill:#795548;}
	.st62{fill:url(#SVGID_6_);}
	.st63{fill:#00897B;}
	.st64{fill:url(#SVGID_7_);}
	.st65{fill:url(#SVGID_8_);}
	.st66{fill:url(#SVGID_9_);}
	.st67{fill:url(#SVGID_10_);}
	.st68{fill:url(#SVGID_11_);}
	.st69{fill:url(#SVGID_12_);}
	.st70{fill:url(#SVGID_13_);}
	.st71{opacity:0.7;fill:#FFFFFF;enable-background:new    ;}
	.st72{fill:url(#SVGID_14_);}
	.st73{fill:url(#SVGID_15_);}
	.st74{opacity:0.2;enable-background:new    ;}
	.st75{fill:#F2F2F2;}
	.st76{fill:#00FF00;}
	.st77{opacity:0.2;fill:#0A6666;enable-background:new    ;}
	.st78{fill:url(#SVGID_16_);}
	.st79{fill:url(#SVGID_17_);}
	.st80{fill:url(#SVGID_18_);}
	.st81{fill:url(#SVGID_19_);}
	.st82{fill:url(#SVGID_20_);}
	.st83{fill:url(#SVGID_21_);}
	.st84{fill:url(#SVGID_22_);}
	.st85{fill:url(#SVGID_23_);}
	.st86{fill:url(#SVGID_24_);}
	.st87{clip-path:url(#SVGID_26_);fill:#FCB13A;}
	.st88{clip-path:url(#SVGID_26_);fill:#E6E6E6;}
	.st89{opacity:0.12;fill:#009688;}
	.st90{opacity:0.56;fill:#0A6666;}
	.st91{clip-path:url(#XMLID_11_);}
	.st92{clip-path:url(#SVGID_28_);fill:#FCB13A;}
	.st93{clip-path:url(#SVGID_30_);fill:#FCB13A;}
	.st94{clip-path:url(#SVGID_30_);fill:#E6E6E6;}
	.st95{clip-path:url(#SVGID_32_);fill:#FCB13A;}
	.st96{clip-path:url(#SVGID_32_);fill:#E6E6E6;}
	.st97{clip-path:url(#XMLID_12_);}
	.st98{clip-path:url(#SVGID_34_);fill:#FCB13A;}
	.st99{clip-path:url(#SVGID_36_);fill:#FCB13A;}
	.st100{clip-path:url(#SVGID_36_);fill:#E6E6E6;}
	.st101{clip-path:url(#SVGID_38_);fill:#FCB13A;}
	.st102{clip-path:url(#SVGID_38_);fill:#E6E6E6;}
	.st103{fill:#498D2D;}
	.st104{opacity:0.43;}
	.st105{fill:#F15E4D;}
	.st106{fill:#E9F5FF;}
	.st107{fill:#BDE2EF;}
	.st108{fill:#B9F6D3;}
	.st109{fill:#4F667A;}
	.st110{fill:#FF6E6E;}
	.st111{fill:#F44E92;}
	.st112{fill:#8AABBF;}
	.st113{fill:#0B6666;}
	.st114{fill:#008B7E;}
	.st115{fill:#E6E6E6;}
	.st116{font-family:'Lato-Medium';}
	.st117{font-size:23.677px;}
</style>
<g id="BACKGROUND">
</g>
<g id="OBJECTS">
</g>
<g id="DESIGNED_BY_FREEPIK">
	<g>
		<path class="st89" d="M196.6,133.9C108.1,139.1,36.3,207.6,27,295.7c-7.3,68.9-11.3,135.9,46.6,135.9
			c123.5,0.1,327.2-0.7,327.2-0.7l21.8,0.6c6.9,0,11.4-5.6,12.6-12.4C445.7,362.3,474.4,117.7,196.6,133.9z"/>
		<path class="st89" d="M293.6,141.2c-88.3,5.2-230.3,66.9-259.2,159.3c-20.7,66.2-27,131.1,31,131.1c123.4,0.1,333-0.1,333-0.1
			h23.9c5.1,0,9.7-2.8,12.1-7.3C458.8,377.6,579.2,124.4,293.6,141.2z"/>
		<path class="st89" d="M159.9,445h-38c-0.7,0-1.4-0.6-1.4-1.4l0,0c0-0.7,0.6-1.4,1.4-1.4h38c0.7,0,1.4,0.6,1.4,1.4l0,0
			C161.3,444.4,160.7,445,159.9,445z"/>
		<path class="st89" d="M338.7,444.2h-43.4c-0.7,0-1.4-0.6-1.4-1.4v-0.7c0-0.7,0.6-1.4,1.4-1.4h43.4c0.7,0,1.4,0.6,1.4,1.4v0.7
			C340.1,443.6,339.5,444.2,338.7,444.2z"/>
		<path class="st90" d="M414.9,388.3c-0.1,8.6-0.2,17.1-0.4,25.7c4.1-0.3,8.1-1.4,11.7-3.6c0.2,0,0.4,0,0.6-0.1
			c6.4-4.9,10.8-12.6,9.4-20.8c-0.7-4.2-2.8-7.9-4.2-11.9c-1.8-5.1-1-9.2,0.4-14.2c2-7.6,2.1-16.1-1.9-23.1
			c-1.1-1.9-2.5-3.6-3.6-5.4c-1.2-2.1-1.7-4.8-2-7.2c-0.2-2.2,0.2-4.5,0.1-6.8c-0.1-2-0.4-3.9-0.9-5.8c-1.4-5.3-5.2-12.2-11.6-12.1
			c-7.5,0.1-9.4,9.1-9.2,15c0.2,4.1,0.9,8.4-0.6,12.4c-1.6,4.3-5.8,6.8-8.1,10.6c-3.5,5.5-4.2,12.8-1.8,18.9
			c1.4,3.4,4.4,6.5,4.5,10.4c0.1,4.5-4.8,7.1-7,10.5c-2.2,3.4-3.2,7.3-3.1,11.2c-5.9-0.8-12.4,0.2-18.3,3.3
			c-8.2,4.4-10.8,1.5-12.6-4.4c1.8,0.4,3.7,0.6,5.5,0.6c0.1-5.1,0.2-10.2,0.2-15.3c0,0,0,0,0,0c-4.9-5.4-9-11.4-12.2-17.9
			c-0.4-0.9,1-1.4,1.4-0.5c2.9,5.9,6.6,11.4,10.9,16.3c0.1-6.8,0.2-13.6,0.3-20.4c-0.1,0-0.1-0.1-0.2-0.1c-5-5.6-9.3-11.7-12.8-18.4
			c-0.4-0.8,0.9-1.4,1.4-0.5c3.2,6.1,7.1,11.7,11.7,16.9c0.1-6.4,0.1-12.8,0.2-19.1c-3.3-4.1-6.3-8.5-8.9-13.1
			c-0.5-0.8,0.7-1.7,1.2-0.9c2.3,4.1,4.9,7.9,7.7,11.6c0.1-6.4,0.1-12.7,0.2-19.1c-0.1,0-0.2-0.1-0.2-0.2c-2.2-2.6-4.3-5.4-6.3-8.2
			c-0.5-0.8,0.6-1.7,1.2-0.9c1.7,2.4,3.5,4.8,5.4,7.1c0-4.3,0.1-8.5,0.1-12.8c0-0.9,1.5-1.1,1.5-0.2c0,5.9-0.1,11.8-0.1,17.6
			c1.6-2.7,3.2-5.4,4.9-8c0.5-0.8,1.7,0.1,1.2,0.9c-2.2,3.3-4.2,6.7-6.1,10.2c0,5.2-0.1,10.4-0.1,15.5c0,0.1,0,0.1,0,0.2
			c0,2.9-0.1,5.8-0.1,8.7c4.3-4.8,8.1-10.1,11.2-15.8c0.5-0.8,1.8-0.2,1.3,0.6c-3.5,6.3-7.7,12.2-12.6,17.4
			c-0.1,7.4-0.2,14.8-0.3,22.1c3.5-3.8,7-7.5,10.6-11.3c0.6-0.7,1.8,0.2,1.2,0.9c-3.9,4.2-7.8,8.4-11.8,12.6
			c-0.1,8-0.2,16.1-0.4,24.1c3.8-0.2,7.7-1.3,11.1-3.4c0.2,0,0.4,0,0.6-0.1c6-4.6,10.1-11.9,8.8-19.6c-0.7-3.9-2.7-7.4-4-11.2
			c-1.7-4.8-0.9-8.6,0.4-13.4c1.9-7.1,1.9-15.2-1.8-21.7c-1-1.8-2.4-3.3-3.4-5.1c-1.1-2-1.6-4.5-1.9-6.8c-0.2-2.1,0.2-4.3,0.1-6.4
			c-0.1-1.8-0.4-3.7-0.8-5.5c-1.3-5-4.9-11.4-10.9-11.4c-7.1,0.1-8.9,8.6-8.6,14.1c0.2,3.9,0.8,7.9-0.6,11.7c-1.5,4-5.4,6.4-7.7,10
			c-3.3,5.2-4,12-1.7,17.8c1.3,3.2,4.2,6.2,4.3,9.8c0.1,4.2-4.5,6.7-6.6,9.8c-0.1,0.1-0.1,0.2-0.1,0.2c-5.8-4-11.5-6.7-16.6-8.4l0,0
			l0,0c-5.4-1.8-10-2.6-13.3-2.9c-2.3-0.2-4.3,1.2-4.9,3.3l-123.6,2.4l0-1c0-2.7-2.3-4.9-5.1-4.6c-4.8,0.5-12.5,1.9-21.2,6.2l0,0
			l0,0c-0.2,0.1-0.5,0.3-0.7,0.4c3.1-4.1,4.7-9.2,3.8-14.5c-0.7-3.9-2.7-7.4-4-11.2c-1.7-4.8-0.9-8.6,0.4-13.4
			c1.9-7.1,1.9-15.2-1.8-21.7c-1-1.8-2.4-3.3-3.4-5.1c-1.1-2-1.6-4.5-1.9-6.8c-0.2-2.1,0.2-4.3,0.1-6.4c-0.1-1.8-0.4-3.7-0.8-5.5
			c-1.3-5-4.9-11.4-10.9-11.4c-7.1,0.1-8.9,8.6-8.6,14.1c0.2,3.9,0.8,7.9-0.6,11.7c-1.5,4-5.4,6.4-7.7,10c-0.4,0.7-0.8,1.4-1.1,2.1
			v-72.3h3.9v-3.9h147.6c0.4,0,0.8-0.3,1-0.7c0.1-0.4,0-0.9-0.3-1.2l-25.2-19.6c-0.2-0.1-0.4-0.2-0.6-0.2H203l-94.6-37.3l0,0
			c-0.1,0-0.2-0.1-0.4-0.1c-0.3,0-0.5,0.1-0.7,0.3l0,0l0,0c0,0,0,0,0,0l-40.3,37.1h-0.6v21.7h10.2h1h15.7v3.9h3.9v145.8
			c0,0.3,0.1,0.5,0.3,0.7l-8.1,9.7v4.5c-0.7-1.6-1.4-3.1-1.9-4.7c-1.7-4.8-0.9-8.6,0.4-13.4c1.9-7.1,1.9-15.2-1.8-21.7
			c-1-1.8-2.4-3.3-3.4-5.1c-1.1-2-1.6-4.5-1.9-6.8c-0.2-2.1,0.2-4.3,0.1-6.4c-0.1-1.8-0.4-3.7-0.8-5.5c-1.3-5-4.9-11.4-10.9-11.4
			c-7.1,0.1-8.9,8.6-8.6,14.1c0.2,3.9,0.8,7.9-0.6,11.7c-1.5,4-5.4,6.4-7.7,10c-3.3,5.2-4,12-1.7,17.8c1.3,3.2,4.2,6.2,4.3,9.8
			c0.1,4.2-4.5,6.7-6.6,9.8c-3.5,5.3-3.7,12.1-1.3,17.9c4.2,8.7,13.3,13.6,22.5,13.5c0.1-5.1,0.2-10.2,0.2-15.3c0,0,0,0,0,0
			c-4.9-5.4-9-11.4-12.2-17.9c-0.4-0.9,1-1.4,1.4-0.5c2.9,5.9,6.6,11.4,10.9,16.3c0.1-6.8,0.2-13.6,0.3-20.4c-0.1,0-0.1-0.1-0.2-0.1
			c-5-5.6-9.3-11.7-12.8-18.4c-0.4-0.8,0.9-1.4,1.4-0.5c3.2,6.1,7.1,11.7,11.7,16.9c0.1-6.4,0.1-12.8,0.2-19.1
			c-3.3-4.1-6.3-8.5-8.9-13.1c-0.5-0.8,0.7-1.7,1.2-0.9c2.3,4.1,4.9,7.9,7.7,11.6c0.1-6.4,0.1-12.7,0.2-19.1c-0.1,0-0.2-0.1-0.2-0.2
			c-2.2-2.6-4.3-5.4-6.3-8.2c-0.5-0.8,0.6-1.7,1.2-0.9c1.7,2.4,3.5,4.8,5.4,7.1c0-4.3,0.1-8.5,0.1-12.8c0-0.9,1.5-1.1,1.5-0.2
			c0,5.9-0.1,11.8-0.1,17.6c1.6-2.7,3.2-5.4,4.9-8c0.5-0.8,1.7,0.1,1.2,0.9c-2.2,3.3-4.2,6.7-6.1,10.2c0,5.2-0.1,10.4-0.1,15.5
			c0,0.1,0,0.1,0,0.2c0,2.9-0.1,5.8-0.1,8.7c4.3-4.8,8.1-10.1,11.2-15.8c0.5-0.8,1.8-0.2,1.3,0.6c-3.5,6.3-7.7,12.2-12.6,17.4
			c-0.1,7.4-0.2,14.8-0.3,22.1c3.5-3.8,7-7.5,10.6-11.3c0.6-0.7,1.8,0.2,1.2,0.9c-3.9,4.2-7.8,8.4-11.8,12.6
			c-0.1,8-0.2,16.1-0.4,24.1c3.8-0.2,7.7-1.3,11.1-3.4c0.1,0,0.2,0,0.3,0c-0.3,11.2-9.6,8.1-18.2,10.6c-5.1,1.5-4.1,9,1.2,9h75.1
			h36.3h134.6h14.8h96.5c5.4,0,6.4-7.5,1.2-9c-8.3-2.4-17.3,0.4-18.2-9.5c2.4,0.6,4.8,0.9,7.2,0.9c0.1-5.4,0.2-10.8,0.2-16.3
			c0,0,0,0,0,0c-5.2-5.7-9.5-12.1-13-19.1c-0.4-0.9,1-1.5,1.5-0.6c3.1,6.3,7,12.1,11.6,17.3c0.1-7.2,0.2-14.5,0.3-21.7
			c-0.1,0-0.1-0.1-0.2-0.1c-5.3-5.9-9.9-12.5-13.6-19.5c-0.5-0.9,1-1.5,1.5-0.6c3.4,6.5,7.6,12.5,12.4,18c0.1-6.8,0.2-13.6,0.2-20.3
			c-3.5-4.4-6.7-9-9.5-13.9c-0.5-0.9,0.8-1.8,1.3-0.9c2.5,4.3,5.2,8.4,8.2,12.3c0.1-6.7,0.1-13.5,0.2-20.2c-0.1,0-0.2-0.1-0.3-0.2
			c-2.4-2.8-4.6-5.7-6.7-8.7c-0.6-0.8,0.7-1.8,1.3-0.9c1.8,2.6,3.7,5.1,5.7,7.5c0-4.5,0.1-9,0.1-13.6c0-1,1.6-1.2,1.6-0.2
			c0,6.2-0.1,12.5-0.1,18.7c1.7-2.9,3.4-5.7,5.2-8.5c0.6-0.8,1.8,0.1,1.2,1c-2.3,3.5-4.5,7.1-6.5,10.8c0,5.5-0.1,11-0.2,16.5
			c0,0.1,0,0.1,0,0.2c0,3.1-0.1,6.1-0.1,9.2c4.6-5.1,8.6-10.7,11.9-16.8c0.5-0.9,1.9-0.2,1.4,0.7c-3.7,6.7-8.2,12.9-13.4,18.5
			c-0.1,7.8-0.2,15.7-0.3,23.5c3.7-4,7.5-8,11.2-12c0.7-0.7,1.9,0.2,1.2,1C423.2,379.4,419.1,383.9,414.9,388.3z M122.6,322.9
			c0.1,2.7-1.8,4.7-3.8,6.7v-15.3C120.3,317,122.5,319.7,122.6,322.9z M114,348.6h-13.4l7.4-8.1l5.5,5.9
			C113.6,347.1,113.8,347.9,114,348.6z M114.8,350.6c0.1,0.2,0.2,0.3,0.2,0.5l-7,7.6l-7.4-8.1H114.8z M116,332.7
			c-2.1,3.1-3,6.6-2.9,10.2l-3.7-4l7.4-8v0.7C116.5,332,116.2,332.4,116,332.7z M115.5,308.1l-7.4,8.1l-7.4-8.1H115.5z M100.6,306
			l7.4-8.1l7.4,8.1H100.6z M116.8,309.7v16l-7.4-8L116.8,309.7z M115.5,327.3h-14.9l7.4-8.1L115.5,327.3z M115.5,329.4l-7.4,8.1
			l-7.4-8.1H115.5z M109.4,296.4l7.4-8v16L109.4,296.4z M99.2,284.4l8.8-9.5l8.8,9.5v0.3H99.2V284.4z M115.5,286.8l-7.4,8.1
			l-7.4-8.1H115.5z M116.8,281.4l-7.4-8l7.4-8V281.4z M115.5,263.8l-7.4,8.1l-7.4-8.1H115.5z M100.6,261.7l7.4-8.1l7.4,8.1H100.6z
			 M116.8,260.1l-7.4-8l7.4-8V260.1z M108,250.6l-7.4-8.1h14.9L108,250.6z M100.6,240.4l7.4-8.1l7.4,8.1H100.6z M99.2,244.1l7.4,8
			l-7.4,8V244.1z M99.2,265.4l7.4,8l-7.4,8V265.4z M99.2,288.4l7.4,8l-7.4,8V288.4z M99.2,309.7l7.4,8l-7.4,8V309.7z M99.2,331
			l7.4,8l-7.4,8V331z M99.2,352.3l7.4,8l-7.4,8V352.3z M100.6,369.8l7.4-8.1l7.4,8.1H100.6z M116.8,368.2l-7.4-8l6.7-7.2
			c0.2,0.3,0.4,0.7,0.7,1V368.2z M116.8,238.8l-7.4-8l5.3-5.7h2.1V238.8z M77.7,205.3l5.5,5.1l-5.5,5.1V205.3z M77.7,202.5v-0.9h15
			l-8,7.4L77.7,202.5z M138.1,217.8l-8.1-7.4l8.1-7.4V217.8z M140.1,203l8,7.4l-8,7.4V203z M149.7,211.8l8,7.4h-16L149.7,211.8z
			 M159.3,217.8l-8.1-7.4l8.1-7.4V217.8z M161.3,202.9l8.1,7.4l-8.1,7.4V202.9z M170.9,211.8l8,7.4h-16L170.9,211.8z M180.5,217.8
			l-8.1-7.4l8.1-7.4V217.8z M182.6,203l8,7.4l-8,7.4V203z M192.2,211.8l8,7.4h-16L192.2,211.8z M201.8,217.8l-8.1-7.4l8.1-7.4V217.8
			z M203.8,202.9l8.1,7.4l-8.1,7.4V202.9z M213.4,211.8l8,7.4h-16L213.4,211.8z M223,217.8l-8.1-7.4l8.1-7.4V217.8z M225.1,203
			l8,7.4l-8,7.4V203z M234.6,211.8l8,7.4h-16L234.6,211.8z M236.2,210.4l8.1-7.4v14.9L236.2,210.4z M234.6,209l-8-7.4h16L234.6,209z
			 M213.4,209l-8-7.4h16L213.4,209z M192.2,209l-8-7.4h16L192.2,209z M170.9,209l-8-7.4h16L170.9,209z M149.7,209l-8-7.4h16
			L149.7,209z M128.5,209l-5.7-5.3v-2.1h13.7L128.5,209z M104.1,195.7l3.9-4.2l3.9,4.2H104.1z M122.7,206.5l4.2,3.9l-4.2,3.9V206.5z
			 M114.7,195.7l-5.3-5.7l7.4-8v13.7H114.7z M108,188.4l-7.4-8.1h14.9L108,188.4z M99.5,178.2l8.5-13.2l8.5,13.2H99.5z M99.2,181.9
			l7.4,8l-5.3,5.7h-2.1V181.9z M93.3,203.8v13.1l-7.1-6.6L93.3,203.8z M111.9,225.1l-3.9,4.2l-3.9-4.2H111.9z M122.7,217.1l5.7-5.3
			l8,7.4h-13.7V217.1z M246.3,219.1v-16.3l20.9,16.3H246.3z M122.7,199.5v-3.9h-3.9v-17.3c0-0.2-0.1-0.4-0.2-0.6l-8.1-12.5
			l86.7,34.2H122.7z M102.7,169.5l-5.4,8.3c-0.1,0.2-0.2,0.4-0.2,0.6v17.3h-3.9v3.9H77.7h-1h-6.5L102.7,169.5z M77.7,218.3l7-6.5
			l8,7.4h-15V218.3z M101.3,225.1l5.3,5.7l-7.4,8v-13.7H101.3z M126.7,397.2v-0.3v-2.4v-5.4v-2.4v-5.4h-0.2l-8-9.6
			c0.3-0.2,0.5-0.5,0.5-0.8v-14.3c4.8,5,11.6,7.6,18.4,7.6c0.1-5.1,0.2-10.2,0.2-15.3c0,0,0,0,0,0c-4.9-5.4-9-11.4-12.2-17.9
			c-0.4-0.9,1-1.4,1.4-0.5c2.9,5.9,6.6,11.4,10.9,16.3c0.1-6.8,0.2-13.6,0.3-20.4c-0.1,0-0.1-0.1-0.2-0.1c-5-5.6-9.3-11.7-12.8-18.4
			c-0.4-0.8,0.9-1.4,1.4-0.5c3.2,6.1,7.1,11.7,11.7,16.9c0.1-6.4,0.1-12.8,0.2-19.1c-3.3-4.1-6.3-8.5-8.9-13.1
			c-0.5-0.8,0.7-1.7,1.2-0.9c2.3,4.1,4.9,7.9,7.7,11.6c0.1-6.4,0.1-12.7,0.2-19.1c-0.1,0-0.2-0.1-0.2-0.2c-2.2-2.6-4.3-5.4-6.3-8.2
			c-0.5-0.8,0.6-1.7,1.2-0.9c1.7,2.4,3.5,4.8,5.4,7.1c0-4.3,0.1-8.5,0.1-12.8c0-0.9,1.5-1.1,1.5-0.2c0,5.9-0.1,11.8-0.1,17.6
			c1.6-2.7,3.2-5.4,4.9-8c0.5-0.8,1.7,0.1,1.2,0.9c-2.2,3.3-4.2,6.7-6.1,10.2c0,5.2-0.1,10.4-0.1,15.5c0,0.1,0,0.1,0,0.2
			c0,2.9-0.1,5.8-0.1,8.7c4.3-4.8,8.1-10.1,11.2-15.8c0.5-0.8,1.8-0.2,1.3,0.6c-3.5,6.3-7.7,12.2-12.6,17.4
			c-0.1,7.4-0.2,14.8-0.3,22.1c3.5-3.8,7-7.5,10.6-11.3c0.6-0.7,1.8,0.2,1.2,0.9c-3.9,4.2-7.8,8.4-11.8,12.6
			c-0.1,8-0.2,16.1-0.4,24.1c1.5-0.1,3-0.3,4.5-0.7C130.4,374.7,134.8,395.4,126.7,397.2z"/>
		<path class="st0" d="M367.9,198.7H123.3c-5.6,0-10.2,4.6-10.2,10.2v89.5c0,5.6,4.6,10.2,10.2,10.2h244.6c5.6,0,10.2-4.6,10.2-10.2
			v-89.5C378.1,203.3,373.6,198.7,367.9,198.7z M153.9,218.3c-2.6,0-4.7-2.1-4.7-4.7c0-2.6,2.1-4.7,4.7-4.7c2.6,0,4.7,2.1,4.7,4.7
			C158.6,216.2,156.5,218.3,153.9,218.3z M336.4,218.3c-2.6,0-4.7-2.1-4.7-4.7c0-2.6,2.1-4.7,4.7-4.7c2.6,0,4.7,2.1,4.7,4.7
			C341.1,216.2,339,218.3,336.4,218.3z"/>
		<g>
			<path class="st19" d="M154.5,211.8c-0.4,0-0.7-0.2-0.9-0.6c-0.2-0.5,0-1.1,0.5-1.3l92.5-44.6c0.5-0.2,1.1,0,1.3,0.5
				c0.2,0.5,0,1.1-0.5,1.3l-92.5,44.6C154.8,211.8,154.7,211.8,154.5,211.8z"/>
		</g>
		<g id="XMLID_166_">
			<g id="XMLID_169_">
				<rect id="XMLID_170_" x="232.1" y="55" class="st63" width="0.9" height="33.7"/>
			</g>
			<g id="XMLID_167_">
				<rect id="XMLID_168_" x="261.7" y="55" class="st63" width="0.9" height="33.7"/>
			</g>
		</g>
		<g id="XMLID_164_">
			<path id="XMLID_165_" class="st49" d="M249,146.6v-22.8h-5.3v24.7c0,0.2-0.1,0.4-0.1,0.5c0,1.5,1.2,2.7,2.7,2.7
				c4.8,0,8.7,3.9,8.7,8.7c0,4.8-3.9,8.7-8.7,8.7c-4.8,0-8.7-3.9-8.7-8.7c0-0.9,0.1-1.7,0.4-2.5c0.4-1.4-0.4-2.9-1.8-3.4
				c-0.7-0.2-1.4-0.1-2.1,0.2c-0.6,0.3-1.1,0.9-1.3,1.6c-0.4,1.3-0.6,2.7-0.6,4.1c0,7.8,6.3,14.1,14.1,14.1
				c7.8,0,14.1-6.3,14.1-14.1C260.4,153.7,255.6,147.9,249,146.6z"/>
		</g>
		<g id="XMLID_162_">
			<rect id="XMLID_163_" x="234.3" y="137.8" class="st19" width="24.1" height="4.5"/>
		</g>
		<g id="XMLID_147_">
			<path id="XMLID_148_" class="st49" d="M262.4,137.8h-32.2c-1.3,0-2.4-0.9-2.7-2.2l-6.7-36c-0.1-0.4-0.1-0.8,0-1.1l3-14.1
				c0.3-1.2,1.4-2.1,2.6-2.1h39.7c1.2,0,2.3,0.9,2.6,2.1l3,14.1c0.1,0.4,0.1,0.8,0,1.1l-6.7,36C264.8,136.9,263.7,137.8,262.4,137.8
				z"/>
		</g>
		<g>
			<path class="st19" d="M226.5,82.3c-1.2,0-2.3,0.9-2.6,2.1l-3,14.1c-0.1,0.4-0.1,0.8,0,1.1l2.6,14.2l9.2-31.4H226.5z"/>
			<path class="st19" d="M240.4,82.3L226.5,130l1,5.6c0.2,1.3,1.4,2.2,2.7,2.2h2.5l16.2-55.5H240.4z"/>
			<polygon class="st19" points="256.6,82.3 240.4,137.8 248.9,137.8 265.1,82.3 			"/>
			<path class="st19" d="M265.1,135.6l6.7-36c0.1-0.4,0.1-0.8,0-1.1l-1.5-7.2l-13.6,46.5h5.8C263.7,137.8,264.8,136.9,265.1,135.6z"
				/>
		</g>
		<g>
			<g>
				<rect x="169.3" y="318.8" class="st49" width="11.1" height="117.4"/>
			</g>
			<g>
				<rect x="301.4" y="318.8" class="st49" width="11.1" height="117.4"/>
			</g>
		</g>
		<rect x="160.1" y="334.4" class="st29" width="161.6" height="51.3"/>
		<rect x="160.1" y="334.4" class="st0" width="161.6" height="51.3"/>
		<g>
			<polygon class="st0" points="143.1,399.6 142.3,399.6 139.6,399.6 138.8,399.6 128.4,436.1 139.6,436.1 142.3,436.1 153.5,436.1 
							"/>
			<rect x="126.5" y="434" class="st115" width="28.3" height="2.1"/>
			<g>
				<polygon class="st31" points="143.8,401.2 138.1,401.2 136.3,407.5 145.6,407.5 				"/>
				<polygon class="st31" points="132.9,419.7 149,419.7 147.3,413.4 134.7,413.4 				"/>
				<polygon class="st31" points="129.5,431.6 152.4,431.6 150.6,425.3 131.3,425.3 				"/>
			</g>
			<rect x="125" y="436.1" class="st31" width="31.9" height="6.1"/>
		</g>
		<g>
			<polygon class="st0" points="293.9,437.9 294.2,438.6 295,441.1 295.3,441.9 333.2,440.1 329.6,429.5 328.8,426.9 325.2,416.3 
							"/>
			
				<rect x="314.1" y="427.8" transform="matrix(-0.3203 -0.9473 0.9473 -0.3203 27.2427 877.1547)" class="st115" width="28.3" height="2.1"/>
			<g>
				<polygon class="st31" points="295.3,436.7 297.1,442 303.6,441.7 300.7,433 				"/>
				<polygon class="st31" points="316.2,441.1 311.1,425.8 305.7,429.5 309.7,441.4 				"/>
				<polygon class="st31" points="328.6,440.5 321.3,418.8 315.9,422.5 322.1,440.8 				"/>
			</g>
			
				<rect x="316.2" y="424.2" transform="matrix(-0.3203 -0.9473 0.9473 -0.3203 33.7698 878.7167)" class="st31" width="31.9" height="6.1"/>
		</g>
		<g>
			<text transform="matrix(1 0 0 1 148.1302 260.5719)" class="st49 st116 st117">Coming Soon..</text>
		</g>
		<g>
			<polygon class="st31" points="178.4,334.4 160.1,372 160.1,385.7 171.6,385.7 196.6,334.4 			"/>
			<polygon class="st31" points="212.7,334.4 187.7,385.7 205.9,385.7 230.9,334.4 			"/>
			<polygon class="st31" points="247.5,334.4 222.5,385.7 240.7,385.7 265.7,334.4 			"/>
			<polygon class="st31" points="281.8,334.4 256.8,385.7 275,385.7 300,334.4 			"/>
			<polygon class="st31" points="321.7,334.4 313.8,334.4 288.8,385.7 307,385.7 321.7,355.6 			"/>
		</g>
		<g>
			<path class="st19" d="M336.4,214.6c-0.2,0-0.3,0-0.5-0.1l-89.4-47.3c-0.5-0.3-0.7-0.9-0.4-1.4c0.3-0.5,0.9-0.7,1.4-0.4l89.4,47.3
				c0.5,0.3,0.7,0.9,0.4,1.4C337.1,214.4,336.8,214.6,336.4,214.6z"/>
		</g>
	</g>
</g>
</svg>
